# xmcd
#
# Track frame offsets: 
#        150
#        13153
#        31854
#        53027
#        69377
#        85549
#        107041
#        121895
#        133570
#        155245
#
# Disc length: 2257 seconds
#
# Revision: 2
# Processed by: cddbd v1.5.2PL0 Copyright (c) Steve Scherf et al.
# Submitted via: ExactAudioCopyFreeDBPlugin 1.0
#
DISCID=7a08cf0a
DTITLE=Various Artist - The Best Of R&B
DYEAR=2008
DGENRE=R&B
TTITLE0=Percy Sledge - When A Man Loves A Woman
TTITLE1=James Brown - It's A Man's, Man's, Man's World
TTITLE2=Marvin Gaye - Got To Give It Up
TTITLE3=Candi Staton - Young Hearts Run Free
TTITLE4=Kool and The Gang - Joanna
TTITLE5=The Chi-Lites - Have You Seen Her
TTITLE6=The Delfonics - Didn't I Blow Your Mind This Time
TTITLE7=The Drifters - Under The Boardwalk
TTITLE8=Heatwave - Always and Forever
TTITLE9=Ben E. King - Spanish Harlem
EXTD=BFP2 52240\n\nDisc Three of Four
EXTT0=
EXTT1=
EXTT2=
EXTT3=
EXTT4=
EXTT5=
EXTT6=
EXTT7=
EXTT8=
EXTT9=
PLAYORDER=
